<svg width="161" height="211" viewBox="0 0 161 211" fill="none" xmlns="http://www.w3.org/2000/svg">
<mask id="path-1-outside-1_22_157" maskUnits="userSpaceOnUse" x="0" y="0" width="161" height="211" fill="black">
<rect fill="white" width="161" height="211"/>
<path fill-rule="evenodd" clip-rule="evenodd" d="M122.917 8H14C10.6863 8 8 10.6863 8 14V196.875C8 200.188 10.6863 202.875 14 202.875H146.193C149.507 202.875 152.193 200.188 152.193 196.875V37.2756L122.917 8Z"/>
</mask>
<path d="M122.917 8L128.574 2.34315L126.231 0H122.917V8ZM152.193 37.2756H160.193V33.9619L157.85 31.6187L152.193 37.2756ZM14 16H122.917V0H14V16ZM16 14C16 15.1046 15.1046 16 14 16V0C6.26802 0 0 6.26801 0 14H16ZM16 196.875V14H0V196.875H16ZM14 194.875C15.1046 194.875 16 195.77 16 196.875H0C0 204.607 6.26803 210.875 14 210.875V194.875ZM146.193 194.875H14V210.875H146.193V194.875ZM144.193 196.875C144.193 195.77 145.088 194.875 146.193 194.875V210.875C153.925 210.875 160.193 204.607 160.193 196.875H144.193ZM144.193 37.2756V196.875H160.193V37.2756H144.193ZM157.85 31.6187L128.574 2.34315L117.261 13.6569L146.536 42.9324L157.85 31.6187Z" fill="#5769A8" mask="url(#path-1-outside-1_22_157)"/>
<path fill-rule="evenodd" clip-rule="evenodd" d="M122.917 8H14C10.6863 8 8 10.6863 8 14V196.875C8 200.188 10.6863 202.875 14 202.875H62.2508V148.341C62.2508 146.132 64.0417 144.341 66.2508 144.341H94.656C96.8651 144.341 98.656 146.132 98.656 148.341V202.875H146.193C149.507 202.875 152.193 200.188 152.193 196.875V37.2756L122.917 8ZM34.8424 53.6849C32.6333 53.6849 30.8424 55.4757 30.8424 57.6849V65.3891C30.8424 67.5982 32.6333 69.3891 34.8425 69.3891H125.35C127.56 69.3891 129.35 67.5982 129.35 65.3891V57.6849C129.35 55.4757 127.56 53.6849 125.35 53.6849H34.8424ZM30.8424 83.3826C30.8424 81.1735 32.6333 79.3826 34.8424 79.3826H125.35C127.56 79.3826 129.35 81.1735 129.35 83.3826V91.0868C129.35 93.296 127.56 95.0868 125.35 95.0868H34.8425C32.6333 95.0868 30.8424 93.296 30.8424 91.0868V83.3826ZM34.8424 105.08C32.6333 105.08 30.8424 106.871 30.8424 109.08V116.785C30.8424 118.994 32.6333 120.785 34.8425 120.785H125.35C127.56 120.785 129.35 118.994 129.35 116.785V109.08C129.35 106.871 127.56 105.08 125.35 105.08H34.8424Z" fill="#667BC6"/>
<path fill-rule="evenodd" clip-rule="evenodd" d="M122.917 8L152.193 37.2756H127.2C124.835 37.2756 122.917 35.3581 122.917 32.9926V8Z" fill="black" fill-opacity="0.15"/>
</svg>
