<svg width="1080" height="1080" viewBox="0 0 1080 1080" fill="none" xmlns="http://www.w3.org/2000/svg">
<g clip-path="url(#clip0_32_3)">
<rect width="1080" height="1080" rx="100" fill="#E1E1E4"/>
<path fill-rule="evenodd" clip-rule="evenodd" d="M709.013 154L833.315 278.302V874.572C833.315 902.871 810.374 925.813 782.074 925.813H298.241C269.941 925.813 247 902.871 247 874.572V205.241C247 176.941 269.941 154 298.241 154H709.013ZM804.034 290.431V874.572C804.034 886.7 794.202 896.532 782.074 896.532H298.241C286.112 896.532 276.28 886.7 276.28 874.572V205.241C276.28 193.112 286.112 183.28 298.241 183.28H696.884L804.034 290.431Z" fill="#5769A8"/>
<path fill-rule="evenodd" clip-rule="evenodd" d="M696.884 183.281H298.241C286.112 183.281 276.281 193.112 276.281 205.241V874.572C276.281 886.7 286.113 896.532 298.241 896.532H474.841V696.936C474.841 688.85 481.396 682.295 489.482 682.295H593.446C601.532 682.295 608.086 688.85 608.086 696.936V896.532H782.074C794.203 896.532 804.035 886.7 804.035 874.572V290.431L696.884 183.281ZM374.525 350.49C366.44 350.49 359.885 357.044 359.885 365.13V393.328C359.885 401.413 366.44 407.968 374.525 407.968H705.79C713.875 407.968 720.43 401.413 720.43 393.328V365.13C720.43 357.044 713.875 350.49 705.79 350.49H374.525ZM359.885 459.185C359.885 451.1 366.44 444.545 374.525 444.545H705.79C713.875 444.545 720.43 451.1 720.43 459.185V487.383C720.43 495.468 713.875 502.023 705.79 502.023H374.525C366.44 502.023 359.885 495.468 359.885 487.383V459.185ZM374.525 538.6C366.44 538.6 359.885 545.155 359.885 553.24V581.438C359.885 589.524 366.44 596.078 374.525 596.078H705.79C713.875 596.078 720.43 589.524 720.43 581.438V553.24C720.43 545.155 713.875 538.6 705.79 538.6H374.525Z" fill="#667BC6"/>
<path fill-rule="evenodd" clip-rule="evenodd" d="M696.886 183.281L804.036 290.431H712.562C703.904 290.431 696.886 283.413 696.886 274.755V183.281Z" fill="black" fill-opacity="0.15"/>
</g>
<defs>
<clipPath id="clip0_32_3">
<rect width="1080" height="1080" fill="white"/>
</clipPath>
</defs>
</svg>
