<svg width="965" height="1154" viewBox="0 0 965 1154" fill="none" xmlns="http://www.w3.org/2000/svg">
<g filter="url(#filter0_d_2_59)">
<path d="M634.485 160H705.927C735.928 160 760.248 184.32 760.248 214.32V562.783C760.248 592.784 735.928 617.104 705.927 617.104H634.485C604.485 617.104 580.165 592.784 580.165 562.783V214.32C580.165 184.32 604.485 160 634.485 160Z" fill="#667BC6" stroke="white" stroke-width="8"/>
<path d="M384.083 809.186V813.186H388.083H705.928C735.928 813.186 760.248 837.506 760.248 867.506V938.948C760.248 968.949 735.928 993.269 705.928 993.269H329.762H258.32C228.32 993.269 204 968.949 204 938.948V867.506V214.32C204 184.32 228.32 160 258.32 160H329.762C359.763 160 384.083 184.32 384.083 214.32V809.186Z" fill="#667BC6" stroke="white" stroke-width="8"/>
<path d="M524.051 669.218V673.218H528.051H735.088C748.983 673.218 760.248 684.482 760.248 698.378V733.37C760.248 747.265 748.983 758.53 735.088 758.53H498.891H463.899C450.003 758.53 438.739 747.265 438.739 733.37V698.378V185.16C438.739 171.265 450.003 160 463.899 160H498.891C512.787 160 524.051 171.265 524.051 185.16V669.218Z" fill="#667BC6" stroke="white" stroke-width="8"/>
</g>
<defs>
<filter id="filter0_d_2_59" x="0" y="-78" width="964.248" height="1241.27" filterUnits="userSpaceOnUse" color-interpolation-filters="sRGB">
<feFlood flood-opacity="0" result="BackgroundImageFix"/>
<feColorMatrix in="SourceAlpha" type="matrix" values="0 0 0 0 0 0 0 0 0 0 0 0 0 0 0 0 0 0 127 0" result="hardAlpha"/>
<feOffset dy="-34"/>
<feGaussianBlur stdDeviation="100"/>
<feComposite in2="hardAlpha" operator="out"/>
<feColorMatrix type="matrix" values="0 0 0 0 0.4 0 0 0 0 0.482353 0 0 0 0 0.776471 0 0 0 0.5 0"/>
<feBlend mode="normal" in2="BackgroundImageFix" result="effect1_dropShadow_2_59"/>
<feBlend mode="normal" in="SourceGraphic" in2="effect1_dropShadow_2_59" result="shape"/>
</filter>
</defs>
</svg>
